<svg xmlns="http://www.w3.org/2000/svg" width="135.288" height="24.84" viewBox="0 0 135.288 24.84">
  <path id="パス_2" data-name="パス 2" d="M1.836-8.568h.54a16.706,16.706,0,0,0,.576,3.33A7.9,7.9,0,0,0,4.194-2.664,5.515,5.515,0,0,0,6.228-.99,6.619,6.619,0,0,0,9.144-.4a5.249,5.249,0,0,0,1.89-.324,3.713,3.713,0,0,0,1.4-.918,3.085,3.085,0,0,0,.756-1.422,3.689,3.689,0,0,0-.054-1.8,2.83,2.83,0,0,0-1.386-1.692Q10.656-7.2,9.18-7.884,7.92-8.46,6.606-9.144a11.263,11.263,0,0,1-2.43-1.71A8.178,8.178,0,0,1,2.358-13.32a8,8,0,0,1-.7-3.528q0-.324.018-.72a5.927,5.927,0,0,1,.09-.792A6.845,6.845,0,0,1,3.744-22.7a6.74,6.74,0,0,1,4.284-1.566,5.32,5.32,0,0,1,2.52.468,12.124,12.124,0,0,1,1.656.972,1.778,1.778,0,0,0,1.008.5.565.565,0,0,0,.612-.486,4.239,4.239,0,0,0,.108-.918h.576v7.236H13.9a18.693,18.693,0,0,0-.684-2.9,7.5,7.5,0,0,0-1.134-2.232,4.876,4.876,0,0,0-1.71-1.422,5.34,5.34,0,0,0-2.412-.5,6.4,6.4,0,0,0-1.8.252,4.116,4.116,0,0,0-1.494.774,3.4,3.4,0,0,0-.972,1.35,4.436,4.436,0,0,0-.27,1.98,3.662,3.662,0,0,0,.5,1.674A4.5,4.5,0,0,0,5.04-16.29a8.11,8.11,0,0,0,1.548.918q.864.4,1.8.756,1.188.468,2.394,1.062a10.588,10.588,0,0,1,2.232,1.476,7.8,7.8,0,0,1,1.728,2.142,7.843,7.843,0,0,1,.882,3.06A7.807,7.807,0,0,1,15.21-3.87a6.876,6.876,0,0,1-1.368,2.322A5.934,5.934,0,0,1,11.718-.054,6.851,6.851,0,0,1,9.036.468,6.91,6.91,0,0,1,6.552.054Q5.472-.36,4.68-.756a7.436,7.436,0,0,0-.81-.414,1.866,1.866,0,0,0-.738-.162q-.4,0-.558.576a5.479,5.479,0,0,0-.2,1.008h-.54ZM20.34-.612a6.372,6.372,0,0,0,1.3-.108,1.781,1.781,0,0,0,.828-.4A2.146,2.146,0,0,0,23-1.962q.216-.558.5-1.422Q25.056-8.64,26.64-13.878t3.168-10.494h1.224L38.7-.612h1.584V0h-8.6V-.612h2.412l-2.3-7.236H25.524l-.252.72q-.18.54-.432,1.368T24.354-4.1q-.234.828-.414,1.512a4.51,4.51,0,0,0-.18.936.716.716,0,0,0,.342.648,2.325,2.325,0,0,0,.81.306,5.04,5.04,0,0,0,.954.09h.846V0H20.34ZM25.7-8.46h5.9l-3.024-9.432ZM44.028-.648h.144V-.864ZM44.172,0V-.648H44.6a6.684,6.684,0,0,0,1.6-.108q.7-.144.81-1.116.036-.324.072-1.35t.054-2.484q.018-1.458.018-3.24v-3.618q0-1.98-.018-3.906t-.036-3.438q-.018-1.512-.072-2.466a3.524,3.524,0,0,0-.126-1.026H44.28v-.612h6.948L56.88-7.776,62.5-24.012h5.9v.612H66.456V-.612H68.4V0H60.084V-.648H62.1l.036-19.224-.288-.072q-1.656,4.9-3.33,9.774T55.116-.4L48.06-20.376l-.288.072V-2.448a3.029,3.029,0,0,0,.072.72.913.913,0,0,0,.324.666,1.829,1.829,0,0,0,.7.342,3.409,3.409,0,0,0,.864.108h1.134V0ZM79.956-.612h2.3V0H73.692V-.612h2.16V-23.4h-2.16v-.612h8.424A17.538,17.538,0,0,1,85-23.76a8.282,8.282,0,0,1,2.772.972,5.984,5.984,0,0,1,2.088,2.016,6.124,6.124,0,0,1,.828,3.348,6.415,6.415,0,0,1-.738,3.186,6.435,6.435,0,0,1-1.872,2.124,7.851,7.851,0,0,1-2.52,1.188,10.3,10.3,0,0,1-2.718.378,9.338,9.338,0,0,1-1.422-.108,3.394,3.394,0,0,1-1.422-.612Zm.036-11.34a3.6,3.6,0,0,0,2.2.72,4.206,4.206,0,0,0,1.908-.432,4.252,4.252,0,0,0,1.476-1.224,5.766,5.766,0,0,0,.936-1.836,7.747,7.747,0,0,0,.324-2.3,9.266,9.266,0,0,0-.414-2.952,4.958,4.958,0,0,0-1.206-2,4.8,4.8,0,0,0-1.89-1.134,7.767,7.767,0,0,0-2.43-.36,2.526,2.526,0,0,0-.342.036q-.234.036-.522.072Zm33.588,4V0H95.832V-.612H98.1V-23.4H95.832v-.612h8.856v.612h-2.52V-.612h4.212a22.7,22.7,0,0,0,2.9-.162,3.827,3.827,0,0,0,2.07-.882,4.4,4.4,0,0,0,1.242-2.2,15.905,15.905,0,0,0,.414-4.1ZM125.028-.72h3.492q1.656,0,3.078-.09a5.644,5.644,0,0,0,2.466-.684,4.1,4.1,0,0,0,1.656-1.89,8.932,8.932,0,0,0,.612-3.708h.612V0H118.872V-.612h1.8V-23.4h-1.8v-.612h18.036l.036,5.9h-.612a7.16,7.16,0,0,0-1.026-3.042,4.427,4.427,0,0,0-1.8-1.548,6.357,6.357,0,0,0-2.412-.54q-1.35-.054-2.9-.054h-3.168v10.62h.936q1.116,0,1.962-.072a2.9,2.9,0,0,0,1.422-.468,2.371,2.371,0,0,0,.864-1.242,8.224,8.224,0,0,0,.324-2.358h.576V-7.74h-.576a8.986,8.986,0,0,0-.27-2.178,2.7,2.7,0,0,0-.666-1.224,2.083,2.083,0,0,0-1.044-.54,7.01,7.01,0,0,0-1.4-.126h-2.124Z" transform="translate(-1.656 24.372)" fill="#333"/>
</svg>
